# xmcd
#
# Track frame offsets: 
#        150
#        26157
#        59657
#        82332
#        113664
#        133212
#        164759
#        190727
#        236497
#        252929
#        277131
#        290082
#        332455
#
# Disc length: 4809 seconds
#
# Revision: 0
# Processed by: cddbd v1.5.2PL0 Copyright (c) Steve Scherf et al.
# Submitted via: ExactAudioCopy v0.95a3
#
DISCID=cf12c70d
DTITLE=Various Artist - The Hard Blues Masters  vol.2  
DYEAR=2002
DGENRE=Blues-Rock
TTITLE0=I'm the Man-GLENN HUGHES
TTITLE1=Wrong Side of Town-BIG GEORGE
TTITLE2=Bad Little Girl-PAT TRAVERS
TTITLE3=Diablo Canyon-OUTLAWS
TTITLE4=In Your Face-MOUNTAIN
TTITLE5=Truth Never Lies-BLINDSIDE BLUES BAND
TTITLE6=Hear My Train a Comin'-JIMMY D'LANE
TTITLE7=All I Want to Do Is Cry-RICK DERRINGER
TTITLE8=Keep Your Head Above Water-ROB TOGNONI
TTITLE9=Texas Flood-STEVIE RAY VAUGHAN
TTITLE10=Look At That White Girl Dance-CUB KODA
TTITLE11=Dreamin' Girl-SUNSET HEIGHTS
TTITLE12=Young Jimmy Brother-JOE RICHARDSON
EXTD=
EXTT0=
EXTT1=
EXTT2=
EXTT3=
EXTT4=
EXTT5=
EXTT6=
EXTT7=
EXTT8=
EXTT9=
EXTT10=
EXTT11=
EXTT12=
PLAYORDER=
